# xmcd
#
# Track frame offsets: 
#        150
#        11645
#        24612
#        37903
#        49159
#        60485
#        71272
#        81333
#        93247
#        105966
#
# Disc length: 1556 seconds
#
# Revision: 0
# Processed by: cddbd v1.5.2PL0 Copyright (c) Steve Scherf et al.
# Submitted via: ExactAudioCopy v0.99pb5
#
DISCID=6f06120a
DTITLE=Eddy Arnold - Eddy Arnold's World Of Hits (1 of 2)
DYEAR=1900
DGENRE=Country
TTITLE0=Make The World Go Away
TTITLE1=I Really Don't Want To Know
TTITLE2=Once In A While
TTITLE3=Welcome To My World
TTITLE4=I Want To Go With You
TTITLE5=Take Me In Your Arms And Hold Me
TTITLE6=The Last Word In Lonesome Is Me
TTITLE7=I'll Hold You In My Heart ('til I Can Hold You In My Arms)
TTITLE8=You Don't Know Me
TTITLE9=At The Close Of A Long Long Day
EXTD=
EXTT0=
EXTT1=
EXTT2=
EXTT3=
EXTT4=
EXTT5=
EXTT6=
EXTT7=
EXTT8=
EXTT9=
PLAYORDER=
